<svg xmlns="http://www.w3.org/2000/svg" viewBox="0 0 200 200" width="200" height="200">
	<style>
		tspan { white-space:pre }
		.shp0 { opacity: 0.992;fill: #ffffff } 
	</style>
	<path id="Path 0" fill-rule="evenodd" class="shp0" d="M105.5 8.67C110.45 8.93 118.33 10.04 123 11.14C127.67 12.23 134.65 14.58 138.5 16.36C142.35 18.14 149.05 22.05 153.39 25.05C157.73 28.05 164.03 33.43 167.39 37.01C170.75 40.59 175.28 46.22 177.45 49.51C179.62 52.8 182.85 58.65 184.64 62.5C186.42 66.35 188.86 73.55 190.07 78.5C191.76 85.41 192.27 90.52 192.27 100.5C192.27 110.48 191.76 115.59 190.07 122.5C188.86 127.45 186.42 134.65 184.64 138.5C182.85 142.35 179.62 148.2 177.45 151.49C175.28 154.78 170.75 160.41 167.39 163.99C164.03 167.57 157.73 172.95 153.39 175.95C149.05 178.95 142.35 182.86 138.5 184.64C134.65 186.42 127.45 188.86 122.5 190.07C115.59 191.76 110.48 192.27 100.5 192.27C90.52 192.27 85.41 191.76 78.5 190.07C73.55 188.86 66.35 186.42 62.5 184.63C58.65 182.85 52.58 179.42 49 177.01C45.42 174.6 39.66 169.9 36.18 166.56C32.71 163.23 27.55 157.13 24.73 153C21.9 148.88 18.14 142.35 16.36 138.5C14.58 134.65 12.14 127.45 10.93 122.5C9.24 115.59 8.73 110.48 8.73 100.5C8.73 90.52 9.24 85.41 10.93 78.5C12.14 73.55 14.58 66.35 16.36 62.5C18.14 58.65 21.9 52.13 24.73 48C27.55 43.88 32.71 37.77 36.18 34.44C39.66 31.1 45.42 26.4 49 23.99C52.58 21.58 58.65 18.17 62.5 16.4C66.35 14.63 72.42 12.41 76 11.48C79.58 10.55 85.65 9.42 89.5 8.98C93.35 8.55 100.55 8.4 105.5 8.67ZM83.5 18.1C80.2 18.7 74.13 20.47 70 22.04C65.88 23.62 59.13 27.09 55 29.77C50.88 32.45 44.61 37.54 41.07 41.07C37.54 44.61 32.45 50.88 29.77 55C27.09 59.13 23.62 65.88 22.06 70C20.49 74.13 18.62 80.2 17.91 83.5C17.19 86.8 16.6 94.45 16.6 100.5C16.6 106.55 17.19 114.2 17.91 117.5C18.62 120.8 20.49 126.88 22.06 131C23.62 135.13 27.09 141.88 29.77 146C32.45 150.13 37.54 156.39 41.07 159.93C44.61 163.46 50.88 168.55 55 171.23C59.13 173.91 65.88 177.38 70 178.94C74.13 180.51 80.2 182.38 83.5 183.09C86.8 183.81 94.45 184.4 100.5 184.4C106.55 184.4 114.2 183.81 117.5 183.09C120.8 182.38 126.88 180.51 131 178.94C135.13 177.38 141.88 173.91 146 171.23C150.13 168.55 156.39 163.46 159.93 159.93C163.46 156.39 168.55 150.13 171.23 146C173.91 141.88 177.38 135.13 178.94 131C180.51 126.88 182.38 120.8 183.09 117.5C183.81 114.2 184.4 106.55 184.4 100.5C184.4 94.45 183.81 86.8 183.09 83.5C182.38 80.2 180.51 74.13 178.94 70C177.38 65.88 173.91 59.13 171.23 55C168.55 50.88 163.46 44.62 159.93 41.1C156.39 37.58 150.8 32.88 147.5 30.66C144.2 28.44 138.57 25.3 135 23.7C131.43 22.09 125.13 19.92 121 18.87C116.88 17.82 109.22 16.78 104 16.55C98.78 16.32 93.38 16.34 92 16.58C90.63 16.82 86.8 17.51 83.5 18.1ZM106.36 32.96C106.99 32.93 108.06 33.61 108.75 34.46C109.77 35.72 110.48 35.79 112.65 34.84C114.11 34.2 115.5 33.86 115.73 34.09C115.96 34.31 115.78 36.66 115.32 39.3C114.87 41.94 114.07 43.97 113.54 43.8C113.01 43.64 112.73 42.15 112.92 40.5C113.22 37.9 113.01 37.6 111.38 38.25C110.35 38.67 108.94 38.56 108.25 38C107.32 37.26 106.87 37.76 106.5 40C106.22 41.65 105.55 43 105 43C104.45 43 103.99 42.21 103.99 41.25C103.98 40.29 104.25 38.04 104.59 36.25C104.93 34.46 105.73 32.98 106.36 32.96ZM127.11 38C127.6 38 127.99 38.56 127.98 39.25C127.97 39.94 127.07 42.41 125.98 44.75C124.89 47.09 123.55 48.77 123 48.5C122.39 48.2 122.83 46.03 124.11 43C125.26 40.25 126.61 38 127.11 38ZM138.09 44.04L141.1 46.21C143 47.58 144.09 49.23 144.05 50.69C144.02 52.04 143.18 53.31 142.02 53.75C140.92 54.16 139.8 55.29 139.52 56.25C139.23 57.21 138.55 57.77 138 57.5C137.45 57.23 137 55.88 137 54.5C137 53.13 136.55 51.77 136 51.5C135.45 51.23 134.78 51.67 134.5 52.5C134.22 53.33 133.55 54 133 54C132.45 54 131.95 53.5 131.88 52.89C131.81 52.29 133.19 50.04 134.93 47.91L138.09 44.04ZM139.09 50.75C140.14 51.44 141.34 51.76 141.75 51.47C142.16 51.18 141.6 50.03 140.5 48.92C138.98 47.38 138.34 47.2 137.84 48.2C137.47 48.94 138.01 50.04 139.09 50.75ZM76.75 47.02C77.16 47.03 81.55 49.19 95.5 56.6L95.14 63.55C94.94 67.37 94.72 70.61 94.64 70.74C94.56 70.88 92.7 70.38 90.5 69.65C86.84 68.43 86.06 67.49 81.27 58.41C78.4 52.96 76.04 48.16 76.02 47.75C76.01 47.34 76.34 47.01 76.75 47.02ZM87.02 59.95C88.11 62.18 89.45 64.22 90 64.5C90.55 64.78 91.02 63.66 91.04 62.03C91.07 59.71 90.42 58.7 88.06 57.48L85.04 55.9L87.02 59.95ZM53.75 52.99C53.89 53 55.35 53.9 57 55C58.65 56.1 59.99 57.79 59.97 58.75C59.96 59.71 59.17 61.3 58.22 62.28C57.28 63.26 55.38 64.06 54 64.05C52.63 64.04 50.93 63.46 50.23 62.77C49.54 62.07 48.91 60.29 48.85 58.81C48.77 56.99 49.51 55.6 51.12 54.55C52.43 53.69 53.61 52.99 53.75 52.99ZM52.2 60.8C53.25 61.85 54.5 62.21 55.45 61.75C56.3 61.34 57 60.55 57 60C57 59.43 56.28 59.32 55.33 59.75C53.98 60.35 53.74 60.06 54.08 58.25C54.35 56.86 54.03 56 53.23 56C52.53 56 51.62 56.7 51.23 57.55C50.79 58.48 51.17 59.77 52.2 60.8ZM101.84 53.01C102.2 53.01 104.67 54.7 107.33 56.76C109.99 58.81 113.22 62.3 116.86 68.5L113.9 73C112.27 75.47 110.84 77.92 110.72 78.43C110.6 78.94 108.7 78.15 106.5 76.67C104.3 75.2 102.05 74.01 101.5 74.03C100.95 74.05 99.6 73.12 98.5 71.96C96.87 70.23 96.61 68.99 97.08 65.17C97.4 62.6 98.45 58.81 99.42 56.75C100.39 54.69 101.48 53 101.84 53.01ZM102.03 65.75C102.06 69.04 102.48 69.68 105.45 71C108.63 72.41 108.92 72.38 110.05 70.5C111.06 68.85 110.91 67.9 109.19 65C108.05 63.08 106.21 60.96 105.11 60.3C103.48 59.32 103 59.37 102.55 60.55C102.25 61.35 102.01 63.69 102.03 65.75ZM153.5 59.03C154.05 58.98 155.36 60.41 156.4 62.22C157.48 64.08 158.02 66.26 157.65 67.25C157.27 68.28 155.97 69 154.5 69C153.13 69 151.78 69.67 151.5 70.5C151.22 71.33 150.55 72 150 72C149.38 72 149.28 70.61 149.75 68.33C150.46 64.86 150.38 64.7 148.25 65.33C147.01 65.7 145.78 65.55 145.5 65C145.22 64.45 146.69 62.9 148.75 61.56C150.81 60.22 152.95 59.08 153.5 59.03ZM152.77 65.25C153.72 66.22 154.84 66.78 155.25 66.5C155.66 66.23 155.44 65.1 154.75 64C154.06 62.89 153.18 61.99 152.8 62C152.41 62 151.86 62.34 151.57 62.75C151.28 63.16 151.82 64.29 152.77 65.25ZM124.04 67C124.57 67 126.09 69.36 127.43 72.25C128.76 75.14 130.11 79.41 130.43 81.75C130.95 85.64 130.77 86.12 128.25 87.41C126.74 88.19 123.92 90.45 122 92.43C120.08 94.41 118.05 96.05 117.5 96.06C116.95 96.07 115.42 95.28 114.11 94.29C112.14 92.81 111.72 91.63 111.75 87.5C111.77 84.75 112.66 80.47 113.73 78C114.79 75.53 117.33 72.04 119.37 70.25C121.41 68.46 123.51 67 124.04 67ZM117.56 80.25C116.7 82.31 116 85.58 116 87.5L116 91C123.36 85.24 125.65 83.55 125.83 83.53C126.01 83.52 125.9 81.92 125.59 80C125.29 78.08 124.47 75.68 123.77 74.68C122.54 72.93 122.44 72.93 120.81 74.68C119.88 75.68 118.42 78.19 117.56 80.25ZM45.19 71.03C47.53 72.09 49.46 73.52 49.47 74.22C49.49 74.93 47.81 75.95 45.73 76.5C43.66 77.05 41.98 77.84 41.98 78.25C41.99 78.66 42.67 79 43.5 79C44.33 79 45.23 79.45 45.5 80C45.77 80.55 45.77 81.34 45.49 81.75C45.21 82.16 43.17 81.6 40.96 80.5C38.75 79.4 36.95 77.94 36.97 77.25C36.99 76.56 38.63 75.66 40.62 75.25C42.62 74.84 44.4 74.28 44.58 74C44.77 73.72 43.81 72.94 42.46 72.25C41.11 71.56 40.21 70.58 40.47 70.06C40.73 69.53 42.82 69.96 45.19 71.03ZM82.5 68.86L84 71.1C84.83 72.34 89.21 80.47 93.75 89.17C99.52 100.24 101.55 105 100.5 105C99.67 105 95.06 103.21 81.5 97.03L77.92 101.27C75.95 103.59 72.8 106.25 70.92 107.17C69.04 108.08 65.74 109.21 59.67 110.5L60.16 103C60.48 98.03 61.48 93.64 63.12 90C64.48 86.97 67.6 82.29 70.05 79.59C72.5 76.89 76.3 73.37 78.5 71.77L82.5 68.86ZM91.73 72.42C93.26 72.81 97.76 74.68 101.75 76.57C105.74 78.46 109.29 80.79 109.64 81.75C109.99 82.71 109.99 85.41 109 92L103 90C97.31 88.1 96.82 87.68 93.56 81.75C91.67 78.31 89.86 74.65 89.54 73.6C89.04 71.95 89.33 71.79 91.73 72.42ZM99.72 83.1C100.7 83.98 102.29 84.99 103.25 85.35C104.43 85.79 105 85.51 105 84.5C105 83.67 103.65 82.33 102 81.5C100.35 80.67 98.78 80 98.5 80C98.22 80 97.99 80.34 97.97 80.75C97.95 81.16 98.74 82.22 99.72 83.1ZM162.25 78.9C163.36 79.23 164.7 80.4 165.23 81.5C165.77 82.6 165.93 84.51 165.6 85.75C165.27 86.99 163.99 88.38 162.75 88.85C161.51 89.32 159.65 89.43 158.62 89.1C157.59 88.77 156.3 87.6 155.77 86.5C155.23 85.4 155.15 83.47 155.58 82.21C156.01 80.95 157.24 79.55 158.3 79.11C159.37 78.66 161.15 78.57 162.25 78.9ZM158.25 85.54C158.94 86.39 159.95 87.09 160.5 87.09C161.05 87.09 162.06 86.39 162.75 85.54C163.75 84.31 163.75 83.69 162.75 82.46C162.06 81.61 160.99 80.93 160.36 80.96C159.74 80.98 158.72 81.67 158.11 82.5C157.29 83.61 157.32 84.4 158.25 85.54ZM137.75 87.04C139.66 87.01 140 87.52 140 90.5C140 92.42 139.06 96.81 137.92 100.25C136.78 103.69 134.57 108.53 133.01 111C131.45 113.47 128.22 117.33 125.84 119.56C123.45 121.8 120.49 124.16 119.25 124.81C117.12 125.93 116.79 125.6 113.14 118.75C111.01 114.76 106.96 107.11 104.14 101.75C101.31 96.39 99.29 91.7 99.64 91.33C100 90.97 103.26 91.91 106.89 93.43C110.53 94.95 114.73 96.71 116.23 97.35C118.76 98.42 119.28 98.19 123.23 94.24C125.58 91.9 129.3 89.33 131.5 88.54C133.7 87.74 136.51 87.07 137.75 87.04ZM124.53 98.61C123.37 100.2 122.18 102.17 121.89 103C121.44 104.28 120.55 104.15 115.93 102.16C112.94 100.88 109.85 99.53 109.05 99.16C108.24 98.79 109.91 103.06 112.8 108.75C115.66 114.39 118.56 118.99 119.25 118.97C119.94 118.96 122.32 117.05 124.53 114.72C126.75 112.4 129.85 107.8 131.41 104.5C132.97 101.2 134.41 97.04 134.6 95.25C134.8 93.46 134.63 92 134.23 92C133.83 92.01 131.96 92.84 130.07 93.86C128.18 94.88 125.69 97.02 124.53 98.61ZM37.4 89.39C39.11 89.74 41.29 90.02 42.25 90.01C43.21 90.01 44 90.67 44 91.5C44 92.67 43.18 92.87 40.25 92.41C38.19 92.09 35.94 91.64 35.25 91.41C34.56 91.19 34.07 90.49 34.15 89.88C34.25 89.16 35.43 88.98 37.4 89.39ZM168 99L168.04 102.75C168.07 104.98 167.43 107.11 166.46 108C165.13 109.23 164.48 109.27 162.92 108.25C161.86 107.56 160.1 107.22 159 107.5C157.9 107.78 157 107.55 157 107C157 106.45 157.9 105.44 159 104.75C160.11 104.06 161.01 102.94 161 102.25C161 101.56 160.32 101 159.5 101C158.68 101 158 100.55 158 100C158 99.45 160.25 99 168 99ZM164.5 106.06C165.05 106.06 165.58 104.92 165.68 103.53C165.8 101.86 165.35 101 164.36 101C163.33 101 162.96 101.8 163.18 103.53C163.35 104.92 163.95 106.06 164.5 106.06ZM82.32 100.02L85.41 101.81C88.02 103.32 88.55 104.29 88.83 108.05C89.01 110.5 88.63 114.3 87.99 116.5C87.36 118.7 85.77 122.08 84.46 124C83.15 125.92 80.72 128.29 79.04 129.25C76.02 130.99 75.99 130.98 73.94 128.25C72.81 126.74 71.23 123.25 70.43 120.5C69.63 117.75 68.98 114.49 68.99 113.25C69 111.75 70.24 110.21 72.75 108.61C74.81 107.3 77.81 104.83 79.41 103.12L82.32 100.02ZM34.84 102.38C35.75 102.66 38.14 103.19 40.15 103.56C42.2 103.93 43.85 104.83 43.9 105.61C43.96 106.38 43.44 107.01 42.75 107.03C42.06 107.05 42.29 107.5 43.25 108.03C44.21 108.56 45 109.45 45 110C45 110.55 42.98 111.9 40.5 113C38.02 114.1 35.44 114.84 34.75 114.65C34.06 114.46 35.08 113.34 37 112.16C38.92 110.97 39.94 110.01 39.25 110C38.55 110 38.11 109.02 38.25 107.75C38.45 105.95 37.95 105.45 35.75 105.25C33.98 105.09 33.03 104.44 33.09 103.43C33.15 102.45 33.8 102.06 34.84 102.38ZM91.75 105C92.16 105 95.28 106.01 98.67 107.25C104.74 109.46 104.9 109.62 108.42 116.75C110.39 120.74 112 124.45 112 125C112 125.55 109.19 124.95 105.75 123.66C102.31 122.37 97.57 120.01 95.21 118.41C91.05 115.59 90.92 115.33 90.96 110.25C90.98 107.36 91.34 105 91.75 105ZM90.89 119.03C91.23 119.04 94.2 120.51 103.5 125.5L103.77 131.5C103.96 135.7 103.51 138.55 102.27 141C101.3 142.92 99.83 144.64 99 144.81C98.17 144.98 95.25 143.14 92.5 140.71C89.75 138.28 86.64 134.76 83.68 129.5L86.98 124.25C88.8 121.36 90.56 119.01 90.89 119.03ZM47.25 122.98C47.94 122.97 49.29 124.54 50.25 126.48C51.21 128.42 52 130.22 52 130.5C52 130.78 49.86 132.09 42.5 135.86L40.25 131.43C38.92 128.81 38.41 126.8 39 126.5C39.55 126.22 40.83 127.69 41.85 129.75C43.01 132.12 43.93 133.04 44.35 132.25C44.71 131.56 44.55 130.1 44 129C43.33 127.67 43.33 126.83 44 126.5C44.55 126.22 45.56 127.11 46.25 128.46C46.94 129.81 47.84 130.71 48.25 130.46C48.66 130.21 48.33 128.65 47.5 127C46.67 125.35 46 123.78 46 123.5C46 123.22 46.56 122.99 47.25 122.98ZM109.5 127.61C111.15 127.95 113.17 128.61 114 129.06C114.83 129.51 117.97 134.61 121 140.39C124.03 146.16 126.16 151.14 125.75 151.44C125.34 151.75 121.51 150.17 117.25 147.94C112.99 145.71 108.49 143.12 107.26 142.19C105.22 140.65 105.12 140.14 106.11 136.5C106.7 134.3 107.04 131.26 106.85 129.74C106.52 127.15 106.69 127.01 109.5 127.61ZM148.5 133C149.32 133 151.16 133.79 152.59 134.75C154.85 136.28 155.27 136.31 155.97 135C156.42 134.17 157.28 133.84 157.89 134.25C158.65 134.77 158.3 136.08 156.75 138.49C155.51 140.41 153.94 141.98 153.25 141.99C152.56 141.99 152 141.55 152 141C152 140.45 152.56 139.73 153.25 139.4C154.05 139.01 153.14 137.92 150.75 136.4C148.69 135.08 147 133.78 147 133.5C147 133.22 147.68 133 148.5 133ZM57.95 138.38C58.25 138.82 58.5 140.38 58.5 141.84C58.5 144.01 58.92 144.45 60.75 144.25C61.99 144.11 63.01 144.34 63.02 144.75C63.03 145.16 61.57 146.97 56.5 152.02L53.69 149.26C52.03 147.63 51.01 145.68 51.2 144.5C51.39 143.29 52.41 142.4 53.76 142.25C55.06 142.11 56.3 141.07 56.7 139.79C57.09 138.58 57.65 137.95 57.95 138.38ZM54.97 147.25C56.15 148.27 57.21 148.58 57.5 148C57.77 147.45 57.44 146.3 56.75 145.46C56.06 144.61 54.94 143.93 54.25 143.96C53.56 143.98 52.99 144.34 52.97 144.75C52.95 145.16 53.85 146.29 54.97 147.25ZM136.25 145.01C136.94 145.02 139.3 146.58 141.5 148.48C143.89 150.54 144.9 151.95 144 152C143.18 152.04 141.26 151.15 137 148L137.75 150.2C138.41 152.15 138.23 152.32 136.25 151.7C134.27 151.09 134.08 151.27 134.65 153.25C135.01 154.49 135.34 155.95 135.4 156.5C135.45 157.05 135.05 157.64 134.5 157.81C133.95 157.98 132.94 156.18 132.26 153.81C131.58 151.44 131.24 148.94 131.51 148.25C131.81 147.49 132.64 147.3 133.62 147.75C134.56 148.18 135.14 148.08 135 147.5C134.87 146.95 134.82 146.16 134.88 145.75C134.95 145.34 135.56 145.01 136.25 145.01ZM71.48 150C72.31 150 74.55 150.79 79.87 153.5L77.44 158.25C76.1 160.86 74.66 163 74.25 163C73.84 162.99 72.04 162.09 70.25 161C68.46 159.9 67 158.55 67 158C67 157.45 67.42 156.21 67.93 155.25C68.44 154.29 69.1 152.71 69.4 151.75C69.7 150.79 70.64 150 71.48 150ZM75.25 156.02C75.66 156.01 76 155.55 76 155C76 154.45 75.33 153.78 74.5 153.5C73.67 153.22 72.44 153.01 71.75 153.03C71.06 153.05 71.4 153.73 72.5 154.55C73.6 155.37 74.84 156.03 75.25 156.02ZM71.5 159.5C72.33 159.78 73.56 159.72 74.25 159.38C75.2 158.9 75.14 158.54 74 157.89C73.17 157.42 71.94 157.02 71.25 157.02C70.56 157.01 70 157.45 70 158C70 158.55 70.67 159.22 71.5 159.5ZM120 154C120.55 154 121.68 156.14 122.51 158.75C123.34 161.36 124.02 163.61 124.01 163.75C124.01 163.89 123.55 164 123 164C122.45 164 121.33 162.43 120.5 160.5C119.67 158.57 119 156.32 119 155.5C119 154.68 119.45 154 120 154ZM102.05 157C102.57 157 104.43 158.69 109.34 164.5L108.67 160.75C108.14 157.79 108.31 157 109.5 157C110.65 157 111 158.28 111 162.5C111 165.53 110.66 167.99 110.25 167.98C109.84 167.98 108.03 166.51 102.96 161.5L102.98 164.75C102.99 166.54 102.66 168.01 102.25 168.01C101.84 168.02 101.07 165.88 100.55 163.26C100.03 160.65 99.94 158.16 100.35 157.75C100.76 157.34 101.53 157 102.05 157Z" />
</svg>